<!-- Generated by IcoMoon.io -->
<svg version="1.1" xmlns="http://www.w3.org/2000/svg" width="13" height="32" viewBox="0 0 13 32">
<title>arrow-down</title>
<path fill="#fff" d="M6.683 31.815l5.707-7.111c0.141-0.198 0.168-0.414 0.082-0.648s-0.245-0.352-0.473-0.352h-3.652v-23.111c0-0.173-0.049-0.315-0.147-0.426s-0.223-0.167-0.375-0.167h-3.131c-0.152 0-0.277 0.055-0.375 0.167s-0.147 0.253-0.147 0.426v23.111h-3.652c-0.218 0-0.375 0.118-0.473 0.352-0.087 0.235-0.054 0.451 0.098 0.648l5.773 7.111c0.109 0.123 0.239 0.185 0.391 0.185 0.141 0 0.266-0.062 0.374-0.185z"></path>
</svg>
